<svg width="14" height="8" viewBox="0 0 14 8" fill="none" xmlns="http://www.w3.org/2000/svg">
<path d="M12.6464 7.35355C12.8417 7.54882 13.1583 7.54882 13.3536 7.35355C13.5488 7.15829 13.5488 6.84171 13.3536 6.64645L12.6464 7.35355ZM7 1L7.35355 0.646447L7 0.292893L6.64645 0.646447L7 1ZM0.646445 6.64645C0.451183 6.84171 0.451183 7.15829 0.646445 7.35355C0.841707 7.54881 1.15829 7.54881 1.35355 7.35355L0.646445 6.64645ZM13.3536 6.64645L7.35355 0.646447L6.64645 1.35355L12.6464 7.35355L13.3536 6.64645ZM6.64645 0.646447L0.646445 6.64645L1.35355 7.35355L7.35355 1.35355L6.64645 0.646447Z" fill="#f94b02"/>
</svg>
