<svg xmlns="http://www.w3.org/2000/svg" viewBox="0 0 147.9 11.59"><defs><style>.cls-1,.cls-2{fill:#d2c393;}.cls-1{fill-rule:evenodd;}</style></defs><title>2</title><g id="Layer_2" data-name="Layer 2"><g id="Layer_1-2" data-name="Layer 1"><path fill="#222" d="M81,2.66a1.44,1.44,0,0,0-2.36,1.17,2.07,2.07,0,0,1-2.47,1.26,1.4,1.4,0,0,1-.79-.57,4.1,4.1,0,0,1-.54-2C76,1.44,75.51.22,74.18,0L74,0h0l-.21,0c-1.33.2-1.85,1.42-.63,2.47a4.09,4.09,0,0,1-.53,2,1.45,1.45,0,0,1-.8.57,2.07,2.07,0,0,1-2.47-1.26,1.44,1.44,0,0,0-2.36-1.17A1.54,1.54,0,0,0,66.8,4.9a1.47,1.47,0,0,0,1.25.5c.92,0,1.88,3.59,2,6.19a15.16,15.16,0,0,1,3.17-.34h1.45a15.31,15.31,0,0,1,3.17.34c.12-2.6,1.09-6.17,2-6.19a1.46,1.46,0,0,0,1.25-.5A1.54,1.54,0,0,0,81,2.66ZM71.32,7.74a.57.57,0,1,1,.57-.57A.58.58,0,0,1,71.32,7.74Zm2.57-.9a.68.68,0,1,1,.67-.68A.68.68,0,0,1,73.89,6.84Zm2.77.9a.57.57,0,1,1,.57-.57A.58.58,0,0,1,76.66,7.74Z"/><path fill="#222" d="M61.45,8.09,59.58,6.73a.3.3,0,0,0-.34,0L57.36,8.09a.29.29,0,0,0,0,.46l1.88,1.36a.3.3,0,0,0,.34,0l1.87-1.36A.28.28,0,0,0,61.45,8.09Z"/><path fill="#222" d="M0,8.63V8L57,6.91a.3.3,0,0,1,.16,0l1.65,1.12a.29.29,0,0,1,0,.47L57.12,9.67a.24.24,0,0,1-.16.05Z"/><path fill="#222" d="M86.45,8.55l1.88,1.36a.29.29,0,0,0,.33,0l1.88-1.36a.28.28,0,0,0,0-.46L88.66,6.73a.29.29,0,0,0-.33,0L86.45,8.09A.28.28,0,0,0,86.45,8.55Z"/><path fill="#222" d="M147.9,8v.63L91,9.72a.26.26,0,0,1-.17-.05L89.14,8.55a.28.28,0,0,1,0-.47L90.78,7a.34.34,0,0,1,.17,0Z"/></g></g></svg>