<svg width="100" height="100" viewBox="0 0 100 100" fill="none" xmlns="http://www.w3.org/2000/svg">
<rect width="100" height="100" fill="url(#paint0_radial)"/>
<path d="M39.563 50.3422C39.563 44.9406 43.9406 40.5607 49.3422 40.5607C54.7437 40.5607 59.1237 44.9406 59.1237 50.3422C59.1237 55.7437 54.7437 60.1237 49.3422 60.1237C43.9406 60.1237 39.563 55.7437 39.563 50.3422V50.3422ZM34.2753 50.3422C34.2753 58.6636 41.0207 65.409 49.3422 65.409C57.6636 65.409 64.409 58.6636 64.409 50.3422C64.409 42.0207 57.6636 35.2753 49.3422 35.2753C41.0207 35.2753 34.2756 42.0203 34.2756 50.3422H34.2753ZM61.4847 34.6779C61.4844 35.3743 61.6906 36.0552 62.0773 36.6343C62.464 37.2135 63.0137 37.6651 63.657 37.9318C64.3003 38.1986 65.0082 38.2686 65.6913 38.133C66.3743 37.9974 67.0019 37.6623 67.4945 37.1701C67.9871 36.6778 68.3227 36.0506 68.4589 35.3676C68.595 34.6847 68.5255 33.9767 68.2593 33.3332C67.9931 32.6897 67.542 32.1396 66.9631 31.7524C66.3842 31.3653 65.7035 31.1585 65.0071 31.1583H65.0057C64.0723 31.1587 63.1771 31.5296 62.5169 32.1895C61.8567 32.8495 61.4855 33.7444 61.4847 34.6779V34.6779ZM37.4879 74.2262C34.6272 74.0959 33.0723 73.6194 32.039 73.2168C30.669 72.6835 29.6916 72.0483 28.6639 71.022C27.6362 69.9958 27.0001 69.0193 26.4691 67.6493C26.0663 66.6165 25.5898 65.0611 25.4598 62.2004C25.3175 59.1075 25.2891 58.1784 25.2891 50.3426C25.2891 42.5069 25.3199 41.5804 25.4598 38.4849C25.59 35.6241 26.0701 34.0718 26.4691 33.0359C27.0025 31.666 27.6376 30.6885 28.6639 29.6609C29.6902 28.6332 30.6667 27.997 32.039 27.4661C33.0718 27.0633 34.6272 26.5867 37.4879 26.4567C40.5808 26.3145 41.5099 26.2861 49.3422 26.2861C57.1744 26.2861 58.1044 26.3163 61.1999 26.4572C64.0607 26.5875 65.613 27.0675 66.6489 27.4665C68.0188 27.9975 68.9963 28.6351 70.0239 29.6613C71.0516 30.6876 71.6854 31.6665 72.2187 33.0364C72.6215 34.0692 73.0981 35.6246 73.2281 38.4853C73.3704 41.5808 73.3988 42.5073 73.3988 50.3431C73.3988 58.1789 73.3704 59.1054 73.2281 62.2009C73.0978 65.0616 72.619 66.6165 72.2187 67.6498C71.6854 69.0197 71.0502 69.9972 70.0239 71.0225C68.9977 72.0479 68.0188 72.684 66.6489 73.2173C65.616 73.6201 64.0607 74.0966 61.1999 74.2267C58.107 74.3689 57.1779 74.3973 49.3422 74.3973C41.5064 74.3973 40.5799 74.3689 37.4879 74.2267V74.2262ZM37.245 21.1777C34.1213 21.3199 31.9869 21.8152 30.1228 22.5406C28.1935 23.2896 26.5581 24.2945 24.925 25.925C23.292 27.5555 22.2896 29.1912 21.5406 31.1228C20.8152 32.988 20.3199 35.1213 20.1777 38.245C20.0331 41.3736 20 42.3738 20 50.3422C20 58.3106 20.0331 59.3108 20.1777 62.4394C20.3199 65.5632 20.8152 67.6963 21.5406 69.5615C22.2896 71.4908 23.2922 73.1295 24.925 74.7593C26.5579 76.3891 28.1912 77.3926 30.1228 78.1437C31.9904 78.8691 34.1213 79.3644 37.245 79.5066C40.3752 79.6489 41.3738 79.6843 49.3422 79.6843C57.3106 79.6843 58.3108 79.6512 61.4394 79.5066C64.5632 79.3644 66.6963 78.8691 68.5615 78.1437C70.4908 77.3926 72.1262 76.3898 73.7593 74.7593C75.3924 73.1288 76.3926 71.4908 77.1438 69.5615C77.8691 67.6963 78.3667 65.563 78.5066 62.4394C78.6489 59.3084 78.682 58.3106 78.682 50.3422C78.682 42.3738 78.6489 41.3736 78.5066 38.245C78.3644 35.1211 77.8691 32.9869 77.1438 31.1228C76.3926 29.1935 75.3898 27.5581 73.7593 25.925C72.1288 24.292 70.4908 23.2896 68.5639 22.5406C66.6963 21.8152 64.563 21.3176 61.4417 21.1777C58.3127 21.0347 57.3129 21 49.3457 21C41.3785 21 40.3764 21.0331 37.2462 21.1777" fill="white"/>
<defs>
<radialGradient id="paint0_radial" cx="0" cy="0" r="1" gradientUnits="userSpaceOnUse" gradientTransform="translate(6.4719 97.8093) scale(126.963)">
<stop offset="0.09" stop-color="#FA8F21"/>
<stop offset="0.78" stop-color="#EB2482"/>
</radialGradient>
</defs>
</svg>
