<svg width="455" height="455" viewBox="0 0 455 455" fill="none" xmlns="http://www.w3.org/2000/svg">
<rect x="49" y="53" width="383" height="348" fill="white"/>
<path fill-rule="evenodd" clip-rule="evenodd" d="M0 0V455H455V0H0ZM384.814 100.68L331.356 357.816C330.097 363.887 322.978 366.638 317.955 362.988L244.98 310.007C240.55 306.79 234.509 306.961 230.268 310.419L189.808 343.4C185.113 347.24 178.037 345.1 176.239 339.317L148.145 248.966L75.562 221.877C68.189 219.115 68.126 208.706 75.478 205.874L373.36 90.959C379.675 88.517 386.19 94.049 384.814 100.68Z" fill="#0986DF"/>
<path fill-rule="evenodd" clip-rule="evenodd" d="M313.567 147.179L171.713 234.546C166.276 237.901 163.717 244.467 165.471 250.614L180.808 304.505C181.899 308.323 187.439 307.933 187.97 303.988L191.956 274.435C192.709 268.871 195.362 263.742 199.478 259.913L316.547 151.091C318.739 149.061 316.115 145.614 313.567 147.179Z" fill="#0986DF"/>
</svg>
